<mxfile host="app.diagrams.net" modified="2023-11-16T03:38:00.016Z" agent="Mozilla/5.0 (Macintosh; Intel Mac OS X 10_15_7) AppleWebKit/537.36 (KHTML, like Gecko) Chrome/119.0.0.0 Safari/537.36" etag="R7DT5lL7cQAIEoA1jLX4" version="22.1.0" type="google">
  <diagram id="R2lEEEUBdFMjLlhIrx00" name="Page-1">
    <mxGraphModel grid="1" page="1" gridSize="10" guides="1" tooltips="1" connect="1" arrows="1" fold="1" pageScale="1" pageWidth="850" pageHeight="1100" math="0" shadow="0" extFonts="Permanent Marker^https://fonts.googleapis.com/css?family=Permanent+Marker">
      <root>
        <mxCell id="0" />
        <mxCell id="1" parent="0" />
        <mxCell id="4gfCmoeFD_clblZ_cAxM-97" value="Student" style="swimlane;childLayout=stackLayout;horizontal=1;startSize=50;horizontalStack=0;rounded=1;fontSize=25;fontStyle=0;strokeWidth=2;resizeParent=0;resizeLast=1;shadow=0;dashed=0;align=center;arcSize=4;whiteSpace=wrap;html=1;fillColor=#fad7ac;strokeColor=#b46504;" vertex="1" parent="1">
          <mxGeometry x="250" y="-190" width="260" height="210" as="geometry" />
        </mxCell>
        <mxCell id="4gfCmoeFD_clblZ_cAxM-98" value="+StudentId&lt;br&gt;+FirstName&lt;span id=&quot;docs-internal-guid-1d87c160-7fff-f977-e7b1-714caff95fcf&quot;&gt;&lt;/span&gt;&lt;br&gt;+lastName" style="align=left;strokeColor=#b46504;fillColor=#fad7ac;spacingLeft=4;fontSize=25;verticalAlign=top;resizable=0;rotatable=0;part=1;html=1;" vertex="1" parent="4gfCmoeFD_clblZ_cAxM-97">
          <mxGeometry y="50" width="260" height="160" as="geometry" />
        </mxCell>
        <mxCell id="4gfCmoeFD_clblZ_cAxM-99" value="DegreeProgram" style="swimlane;childLayout=stackLayout;horizontal=1;startSize=50;horizontalStack=0;rounded=1;fontSize=25;fontStyle=0;strokeWidth=2;resizeParent=0;resizeLast=1;shadow=0;dashed=0;align=center;arcSize=4;whiteSpace=wrap;html=1;fillColor=#fad7ac;strokeColor=#b46504;" vertex="1" parent="1">
          <mxGeometry x="710" y="-170" width="215" height="170" as="geometry" />
        </mxCell>
        <mxCell id="4gfCmoeFD_clblZ_cAxM-100" value="+programId&lt;br&gt;+programName&lt;br&gt;+TotalCredits" style="align=left;strokeColor=#b46504;fillColor=#fad7ac;spacingLeft=4;fontSize=25;verticalAlign=top;resizable=0;rotatable=0;part=1;html=1;" vertex="1" parent="4gfCmoeFD_clblZ_cAxM-99">
          <mxGeometry y="50" width="215" height="120" as="geometry" />
        </mxCell>
        <mxCell id="4gfCmoeFD_clblZ_cAxM-101" value="Department" style="swimlane;childLayout=stackLayout;horizontal=1;startSize=50;horizontalStack=0;rounded=1;fontSize=25;fontStyle=0;strokeWidth=2;resizeParent=0;resizeLast=1;shadow=0;dashed=0;align=center;arcSize=4;whiteSpace=wrap;html=1;fillColor=#fad7ac;strokeColor=#b46504;" vertex="1" parent="1">
          <mxGeometry x="1140" y="-210" width="250" height="200" as="geometry" />
        </mxCell>
        <mxCell id="4gfCmoeFD_clblZ_cAxM-102" value="+DepartmentID&lt;br&gt;+DepartmentName&lt;br&gt;" style="align=left;strokeColor=#b46504;fillColor=#fad7ac;spacingLeft=4;fontSize=25;verticalAlign=top;resizable=0;rotatable=0;part=1;html=1;" vertex="1" parent="4gfCmoeFD_clblZ_cAxM-101">
          <mxGeometry y="50" width="250" height="150" as="geometry" />
        </mxCell>
        <mxCell id="4gfCmoeFD_clblZ_cAxM-103" value="CoreRequiremenr" style="swimlane;childLayout=stackLayout;horizontal=1;startSize=50;horizontalStack=0;rounded=1;fontSize=25;fontStyle=0;strokeWidth=2;resizeParent=0;resizeLast=1;shadow=0;dashed=0;align=center;arcSize=4;whiteSpace=wrap;html=1;fillColor=#fad7ac;strokeColor=#b46504;" vertex="1" parent="1">
          <mxGeometry x="330" y="420" width="230" height="240" as="geometry" />
        </mxCell>
        <mxCell id="4gfCmoeFD_clblZ_cAxM-104" value="+RequirementId&lt;br&gt;+RequirementName&lt;br&gt;+ CreditNeeded" style="align=left;strokeColor=#b46504;fillColor=#fad7ac;spacingLeft=4;fontSize=25;verticalAlign=top;resizable=0;rotatable=0;part=1;html=1;" vertex="1" parent="4gfCmoeFD_clblZ_cAxM-103">
          <mxGeometry y="50" width="230" height="190" as="geometry" />
        </mxCell>
        <mxCell id="4gfCmoeFD_clblZ_cAxM-105" value="DegreeSpecific Requirement" style="swimlane;childLayout=stackLayout;horizontal=1;startSize=50;horizontalStack=0;rounded=1;fontSize=25;fontStyle=0;strokeWidth=2;resizeParent=0;resizeLast=1;shadow=0;dashed=0;align=center;arcSize=4;whiteSpace=wrap;html=1;fillColor=#fad7ac;strokeColor=#b46504;" vertex="1" parent="1">
          <mxGeometry x="1180" y="370" width="320" height="180" as="geometry" />
        </mxCell>
        <mxCell id="4gfCmoeFD_clblZ_cAxM-106" value="+DegreeSpecificReqId&lt;br&gt;+DegreeSpecifcReqName&lt;br&gt;+ CreditNeeded" style="align=left;strokeColor=#b46504;fillColor=#fad7ac;spacingLeft=4;fontSize=25;verticalAlign=top;resizable=0;rotatable=0;part=1;html=1;" vertex="1" parent="4gfCmoeFD_clblZ_cAxM-105">
          <mxGeometry y="50" width="320" height="130" as="geometry" />
        </mxCell>
        <mxCell id="4gfCmoeFD_clblZ_cAxM-107" value="Course" style="swimlane;childLayout=stackLayout;horizontal=1;startSize=50;horizontalStack=0;rounded=1;fontSize=25;fontStyle=0;strokeWidth=2;resizeParent=0;resizeLast=1;shadow=0;dashed=0;align=center;arcSize=4;whiteSpace=wrap;html=1;fillColor=#fad7ac;strokeColor=#b46504;" vertex="1" parent="1">
          <mxGeometry x="690" y="600" width="300" height="230" as="geometry" />
        </mxCell>
        <mxCell id="4gfCmoeFD_clblZ_cAxM-108" value="+CourseId&lt;br&gt;+CourseName&lt;br&gt;+Credit" style="align=left;strokeColor=#b46504;fillColor=#fad7ac;spacingLeft=4;fontSize=25;verticalAlign=top;resizable=0;rotatable=0;part=1;html=1;" vertex="1" parent="4gfCmoeFD_clblZ_cAxM-107">
          <mxGeometry y="50" width="300" height="180" as="geometry" />
        </mxCell>
        <mxCell id="4gfCmoeFD_clblZ_cAxM-111" style="edgeStyle=orthogonalEdgeStyle;rounded=0;orthogonalLoop=1;jettySize=auto;html=1;startArrow=ERmany;startFill=0;endArrow=ERmany;endFill=0;fillColor=#fad7ac;strokeColor=#b46504;endSize=12;startSize=12;strokeWidth=2;" edge="1" parent="1" source="4gfCmoeFD_clblZ_cAxM-98" target="4gfCmoeFD_clblZ_cAxM-100">
          <mxGeometry relative="1" as="geometry" />
        </mxCell>
        <mxCell id="4gfCmoeFD_clblZ_cAxM-114" style="edgeStyle=orthogonalEdgeStyle;rounded=0;orthogonalLoop=1;jettySize=auto;html=1;entryX=0;entryY=0.5;entryDx=0;entryDy=0;startArrow=ERmany;startFill=0;endArrow=ERmany;endFill=0;fillColor=#fad7ac;strokeColor=#b46504;endSize=12;startSize=12;strokeWidth=2;" edge="1" parent="1" source="4gfCmoeFD_clblZ_cAxM-100" target="4gfCmoeFD_clblZ_cAxM-102">
          <mxGeometry relative="1" as="geometry" />
        </mxCell>
        <mxCell id="4gfCmoeFD_clblZ_cAxM-115" style="edgeStyle=orthogonalEdgeStyle;rounded=0;orthogonalLoop=1;jettySize=auto;html=1;entryX=0.579;entryY=-0.006;entryDx=0;entryDy=0;entryPerimeter=0;endArrow=ERmany;endFill=0;startArrow=ERmany;startFill=0;fillColor=#fad7ac;strokeColor=#b46504;endSize=12;startSize=12;strokeWidth=2;" edge="1" parent="1" source="4gfCmoeFD_clblZ_cAxM-100" target="4gfCmoeFD_clblZ_cAxM-103">
          <mxGeometry relative="1" as="geometry">
            <Array as="points">
              <mxPoint x="818" y="200" />
              <mxPoint x="463" y="200" />
            </Array>
          </mxGeometry>
        </mxCell>
        <mxCell id="4gfCmoeFD_clblZ_cAxM-116" style="edgeStyle=orthogonalEdgeStyle;rounded=0;orthogonalLoop=1;jettySize=auto;html=1;entryX=0.411;entryY=-0.013;entryDx=0;entryDy=0;entryPerimeter=0;exitX=0.5;exitY=1;exitDx=0;exitDy=0;endArrow=ERmany;endFill=0;startArrow=ERmany;startFill=0;fillColor=#fad7ac;strokeColor=#b46504;endSize=12;startSize=12;strokeWidth=2;" edge="1" parent="1" source="4gfCmoeFD_clblZ_cAxM-100" target="4gfCmoeFD_clblZ_cAxM-105">
          <mxGeometry relative="1" as="geometry">
            <mxPoint x="1050" y="320" as="sourcePoint" />
          </mxGeometry>
        </mxCell>
        <mxCell id="4gfCmoeFD_clblZ_cAxM-117" style="edgeStyle=orthogonalEdgeStyle;rounded=0;orthogonalLoop=1;jettySize=auto;html=1;entryX=0.567;entryY=0;entryDx=0;entryDy=0;entryPerimeter=0;startArrow=ERmany;startFill=0;endArrow=ERmany;endFill=0;fillColor=#fad7ac;strokeColor=#b46504;endSize=12;startSize=12;strokeWidth=2;" edge="1" parent="1" source="4gfCmoeFD_clblZ_cAxM-104" target="4gfCmoeFD_clblZ_cAxM-107">
          <mxGeometry relative="1" as="geometry" />
        </mxCell>
        <mxCell id="4gfCmoeFD_clblZ_cAxM-120" style="edgeStyle=orthogonalEdgeStyle;rounded=0;orthogonalLoop=1;jettySize=auto;html=1;entryX=1;entryY=0.5;entryDx=0;entryDy=0;endArrow=ERmany;endFill=0;startArrow=ERmany;startFill=0;fillColor=#fad7ac;strokeColor=#b46504;" edge="1" parent="1" source="4gfCmoeFD_clblZ_cAxM-106" target="4gfCmoeFD_clblZ_cAxM-108">
          <mxGeometry relative="1" as="geometry" />
        </mxCell>
      </root>
    </mxGraphModel>
  </diagram>
</mxfile>
